<?xml version="1.0" standalone="no"?>
<svg viewBox="0 0 200 200" xmlns="http://www.w3.org/2000/svg">
  <path fill="#8A3FFC" d="M43.1,-77.3C53.4,-68.7,57.5,-52.2,65.7,-38C73.8,-23.7,85.9,-11.9,89.1,1.9C92.4,15.6,86.7,31.2,77.8,44C68.9,56.9,56.7,67,43.2,70.4C29.7,73.9,14.8,70.7,2.1,67.1C-10.6,63.5,-21.2,59.3,-33.8,55.3C-46.4,51.3,-61,47.5,-69.3,38.3C-77.7,29.1,-79.9,14.5,-76.9,1.8C-73.8,-11,-65.5,-22,-57.4,-31.8C-49.4,-41.6,-41.7,-50.3,-32.2,-59.3C-22.7,-68.3,-11.3,-77.7,2.5,-82.1C16.4,-86.5,32.8,-85.9,43.1,-77.3Z" transform="translate(100 100)" />
</svg>
